
<svg version="1.1" xmlns="http://www.w3.org/2000/svg" xmlns:xlink="http://www.w3.org/1999/xlink" x="0px" y="0px"
	>
	<symbol id="app" viewBox="0 0 64 64">
		<path d="M26,30H9c-2.2,0-4-1.8-4-4V9c0-2.2,1.8-4,4-4h17c2.2,0,4,1.8,4,4v17C30,28.2,28.2,30,26,30z"/>
		<path d="M55,30H38c-2.2,0-4-1.8-4-4V9c0-2.2,1.8-4,4-4h17c2.2,0,4,1.8,4,4v17C59,28.2,57.2,30,55,30z"/>
		<path d="M26,59H9c-2.2,0-4-1.8-4-4V38c0-2.2,1.8-4,4-4h17c2.2,0,4,1.8,4,4v17C30,57.2,28.2,59,26,59z"/>
		<path d="M55,59H38c-2.2,0-4-1.8-4-4V38c0-2.2,1.8-4,4-4h17c2.2,0,4,1.8,4,4v17C59,57.2,57.2,59,55,59z"/>
	</symbol>

	<symbol id="contact" viewBox="0 0 64 64">
		<path d="M36.6,43.7v-3.8c5-2.9,9.1-10,9.1-17.1C45.7,11.3,45.7,2,32,2s-13.7,9.3-13.7,20.8c0,7.1,4.1,14.3,9.1,17.1
			v3.8C11.9,45,0,52.7,0,62h64C64,52.7,52.1,45,36.6,43.7z"/>
		<rect x="47" y="24" width="17" height="3"/>
		<rect x="50" y="31" width="14" height="3"/>
		<rect x="53" y="38" width="11" height="3"/>
	</symbol>

	<symbol id="messages" viewBox="0 0 64 64">
		<path d="M60.4,53.3c0,2.5,1.4,4.6,3.6,5.7v0.9C63.4,60,62.8,60,62.2,60c-3.8,0-7.2-1.6-9.6-4.1
		c-1.5,0.4-3,0.6-4.6,0.6c-8.8,0-16-6.3-16-14s7.2-14,16-14s16,6.3,16,14c0,3-1.1,5.8-3,8.1C60.7,51.5,60.4,52.4,60.4,53.3
		L60.4,53.3z"/>
		<path d="M28.5,4c15.5,0,28,9.9,28.4,22.2c-2.7-1.2-5.8-1.8-8.9-1.8c-5.3,0-10.3,1.8-14.1,5.2
		c-3.9,3.4-6.1,8.1-6.1,13c0,2.4,0.5,4.8,1.5,7c-0.3,0-0.6,0-0.9,0c-1.5,0-3-0.1-4.4-0.3c-6.1,6-13.4,7.1-20.5,7.3V55
		c3.8-1.8,7.1-5.2,7.1-9c0-0.5,0-1.1-0.1-1.6C4.1,40.2,0,33.9,0,26.7C0.1,14.2,12.8,4,28.5,4L28.5,4z"/>
	</symbol>
	<symbol id="my" viewBox="0 0 64 64">
		<path d="M36.6,43.7v-3.8c5-2.9,9.1-10,9.1-17.1C45.7,11.3,45.7,2,32,2s-13.7,9.3-13.7,20.8c0,7.1,4.1,14.3,9.1,17.1
	v3.8C11.9,45,0,52.7,0,62h64C64,52.7,52.1,45,36.6,43.7z"/>
		</symbol>
</svg>
